<svg width="32" height="32" viewBox="0 0 32 32" fill="none" xmlns="http://www.w3.org/2000/svg">
<g clip-path="url(#clip0_4:16)">
<path d="M15.6 31.2C7.0005 31.2 0 24.1995 0 15.6C0 7.0005 7.0005 0 15.6 0C24.1995 0 31.2 7.0005 31.2 15.6C31.2 24.1995 24.1995 31.2 15.6 31.2ZM28.756 17.7346C28.301 17.5916 24.635 16.4957 20.4568 17.1652C22.1988 21.9544 22.9099 25.8544 23.0464 26.6656C24.5576 25.6455 25.8441 24.3268 26.8267 22.7909C27.8093 21.255 28.4672 19.5343 28.7599 17.7346H28.756ZM20.8065 27.885C20.6076 26.715 19.8315 22.6434 17.9595 17.784L17.8737 17.81C10.3467 20.4295 7.6557 25.6425 7.4217 26.13C9.75419 27.9595 12.6343 28.9513 15.5987 28.9458C17.4447 28.9458 19.1997 28.5688 20.7987 27.8876L20.8065 27.885ZM5.7005 24.531C6.0021 24.011 9.659 17.9595 16.5321 15.7365C16.7076 15.678 16.8831 15.6273 17.0586 15.5805C16.7206 14.82 16.3566 14.0634 15.977 13.3185C9.321 15.3075 2.8678 15.223 2.2828 15.21L2.2776 15.6156C2.2776 19.0385 3.575 22.1637 5.7018 24.5271L5.7005 24.531ZM2.5545 12.8895C3.1525 12.8999 8.6424 12.9233 14.8746 11.2671C13.3674 8.61155 11.7183 6.03903 9.9346 3.5607C8.06854 4.43922 6.43127 5.73793 5.15109 7.35507C3.87092 8.97221 2.98261 10.8638 2.5558 12.8817L2.5545 12.8895ZM12.48 2.6676C12.8466 3.1616 15.2685 6.4558 17.4486 10.4676C22.1871 8.6931 24.1956 5.9956 24.4335 5.655C22.0025 3.48635 18.8577 2.28951 15.6 2.2932C14.5275 2.2932 13.481 2.4232 12.48 2.6637V2.6676ZM25.9155 7.1955C25.6321 7.5725 23.4 10.4364 18.4743 12.4475C18.7863 13.0845 19.0853 13.728 19.3583 14.3793C19.4623 14.6133 19.5533 14.8473 19.6443 15.0683C24.0773 14.5093 28.4843 15.4063 28.9263 15.4973C28.9003 12.3513 27.7823 9.4653 25.9233 7.2033L25.9155 7.1955Z" fill="#1C1C1C"/>
</g>
<defs>
<clipPath id="clip0_4:16">
<rect width="31.2" height="31.2" fill="white"/>
</clipPath>
</defs>
</svg>
