<svg width="32" height="32" viewBox="0 0 32 32" fill="none" xmlns="http://www.w3.org/2000/svg">
<path d="M15.6 0C11.362 0 10.8329 0.0195 9.1689 0.0936C7.5075 0.1716 6.3765 0.4329 5.382 0.819C4.3563 1.2168 3.4853 1.7511 2.6182 2.6182C1.7511 3.4853 1.2155 4.355 0.819 5.382C0.4329 6.3765 0.1703 7.5075 0.0936 9.1689C0.0156 10.8329 0 11.362 0 15.6C0 19.838 0.0195 20.3671 0.0936 22.0311C0.1716 23.6912 0.4329 24.8235 0.819 25.818C1.21068 26.8591 1.82468 27.8023 2.6182 28.5818C3.39726 29.3759 4.34057 29.99 5.382 30.381C6.3778 30.7658 7.5088 31.0297 9.1689 31.1064C10.8329 31.1844 11.362 31.2 15.6 31.2C19.838 31.2 20.3671 31.1805 22.0311 31.1064C23.6912 31.0284 24.8235 30.7658 25.818 30.381C26.8589 29.9888 27.8019 29.3749 28.5818 28.5818C29.3761 27.803 29.9903 26.8596 30.381 25.818C30.7658 24.8235 31.0297 23.6912 31.1064 22.0311C31.1844 20.3671 31.2 19.838 31.2 15.6C31.2 11.362 31.1805 10.8329 31.1064 9.1689C31.0284 7.5088 30.7658 6.3752 30.381 5.382C29.9891 4.34098 29.3752 3.39785 28.5818 2.6182C27.8033 1.82343 26.8598 1.20925 25.818 0.819C24.8235 0.4329 23.6912 0.1703 22.0311 0.0936C20.3671 0.0156 19.838 0 15.6 0ZM15.6 2.808C19.7639 2.808 20.2605 2.8288 21.905 2.9003C23.426 2.9718 24.2515 3.224 24.8001 3.4398C25.5307 3.7219 26.0481 4.0599 26.5967 4.6046C27.1414 5.1506 27.4794 5.6693 27.7615 6.3999C27.9747 6.9485 28.2295 7.774 28.2984 9.295C28.3725 10.9408 28.3894 11.4348 28.3894 15.6C28.3894 19.7652 28.3699 20.2605 28.2932 21.905C28.2139 23.426 27.9604 24.2515 27.7459 24.8001C27.4921 25.4771 27.0932 26.0903 26.5772 26.5967C26.073 27.1132 25.4602 27.5111 24.7832 27.7615C24.2372 27.9747 23.3987 28.2295 21.8777 28.2984C20.2215 28.3725 19.734 28.3894 15.561 28.3894C11.3867 28.3894 10.8992 28.3699 9.2443 28.2932C7.722 28.2139 6.8835 27.9604 6.3375 27.7459C5.66008 27.4953 5.04748 27.0959 4.5448 26.5772C4.02296 26.0764 3.62273 25.4627 3.3748 24.7832C3.1603 24.2372 2.9081 23.3987 2.8288 21.8777C2.7703 20.2397 2.7495 19.734 2.7495 15.5805C2.7495 11.4257 2.7703 10.9187 2.8288 9.2612C2.9081 7.7402 3.1603 6.903 3.3748 6.357C3.6478 5.616 3.9975 5.109 4.5448 4.5617C5.0895 4.017 5.5978 3.666 6.3375 3.3943C6.8835 3.1785 7.7038 2.925 9.2248 2.847C10.8823 2.7885 11.3698 2.769 15.5415 2.769L15.6 2.808ZM15.6 7.5894C14.548 7.5894 13.5064 7.7966 12.5345 8.19917C11.5626 8.60174 10.6795 9.1918 9.93565 9.93565C9.1918 10.6795 8.60174 11.5626 8.19917 12.5345C7.7966 13.5064 7.5894 14.548 7.5894 15.6C7.5894 16.652 7.7966 17.6936 8.19917 18.6655C8.60174 19.6374 9.1918 20.5205 9.93565 21.2643C10.6795 22.0082 11.5626 22.5983 12.5345 23.0008C13.5064 23.4034 14.548 23.6106 15.6 23.6106C17.7245 23.6106 19.7621 22.7666 21.2643 21.2643C22.7666 19.7621 23.6106 17.7245 23.6106 15.6C23.6106 13.4755 22.7666 11.4379 21.2643 9.93565C19.7621 8.43337 17.7245 7.5894 15.6 7.5894ZM15.6 20.8C12.727 20.8 10.4 18.473 10.4 15.6C10.4 12.727 12.727 10.4 15.6 10.4C18.473 10.4 20.8 12.727 20.8 15.6C20.8 18.473 18.473 20.8 15.6 20.8ZM25.7998 7.2735C25.7817 7.75791 25.5766 8.21647 25.2275 8.55279C24.8784 8.88912 24.4125 9.07702 23.9278 9.07702C23.4431 9.07702 22.9772 8.88912 22.6281 8.55279C22.279 8.21647 22.0739 7.75791 22.0558 7.2735C22.0558 6.77701 22.253 6.30086 22.6041 5.9498C22.9552 5.59873 23.4313 5.4015 23.9278 5.4015C24.4243 5.4015 24.9004 5.59873 25.2515 5.9498C25.6026 6.30086 25.7998 6.77701 25.7998 7.2735Z" fill="#1C1C1C"/>
</svg>
