<svg width="32" height="32" viewBox="0 0 32 32" fill="none" xmlns="http://www.w3.org/2000/svg">
<path d="M22.7136 18.6966C22.3275 18.5029 20.4282 17.5695 20.0746 17.4395C19.7197 17.3108 19.4623 17.2471 19.2036 17.6345C18.9475 18.0206 18.2065 18.8903 17.9816 19.1477C17.7567 19.4064 17.5305 19.4376 17.1444 19.2452C16.7583 19.0502 15.5129 18.6433 14.0374 17.3277C12.8895 16.3033 12.1134 15.0384 11.8885 14.651C11.6636 14.2649 11.8651 14.0556 12.0575 13.8632C12.2317 13.6903 12.4449 13.4121 12.6373 13.1872C12.831 12.961 12.8947 12.7998 13.0247 12.5411C13.1534 12.2837 13.0897 12.0588 12.9922 11.8651C12.8947 11.6714 12.1225 9.76949 11.8014 8.99599C11.4868 8.24329 11.1683 8.34599 10.9317 8.33299C10.6848 8.32316 10.4378 8.31882 10.1907 8.31999C9.9333 8.31999 9.5147 8.41619 9.1611 8.80359C8.8075 9.18969 7.8091 10.1244 7.8091 12.0263C7.8091 13.9269 9.1936 15.7638 9.386 16.0225C9.5797 16.2799 12.1108 20.1825 15.9861 21.8556C16.9078 22.2534 17.6267 22.4913 18.1883 22.6681C19.1139 22.9632 19.9563 22.9216 20.6206 22.8215C21.3629 22.711 22.906 21.8868 23.2284 20.9846C23.5508 20.0824 23.5508 19.3089 23.4533 19.1477C23.3571 18.9865 23.0997 18.8903 22.7123 18.6966H22.7136ZM15.665 28.3205H15.6598C13.3585 28.3207 11.0995 27.7019 9.1195 26.5291L8.6502 26.2509L3.7869 27.5275L5.0843 22.7851L4.7788 22.2989C3.49237 20.2504 2.81182 17.8798 2.8158 15.4609C2.8171 8.37589 8.5826 2.61169 15.6702 2.61169C19.1022 2.61169 22.3288 3.95069 24.7546 6.37909C25.9515 7.57069 26.9001 8.98784 27.5457 10.5485C28.1913 12.1092 28.5209 13.7824 28.5155 15.4713C28.5116 22.5563 22.7474 28.3205 15.665 28.3205ZM26.6019 4.53439C25.1695 3.09259 23.4653 1.94939 21.5879 1.17103C19.7105 0.392675 17.6973 -0.00536016 15.665 -7.76435e-06C7.1435 -7.76435e-06 0.207997 6.93549 0.204097 15.4596C0.204097 18.1844 0.915197 20.8442 2.2685 23.1881L0.0740967 31.2L8.2706 29.0498C10.5373 30.2847 13.0773 30.9319 15.6585 30.9322H15.665C24.1852 30.9322 31.122 23.9967 31.1259 15.4713C31.1322 13.4397 30.7356 11.4271 29.9591 9.54984C29.1825 7.67255 28.0415 5.96786 26.6019 4.53439Z" fill="#1C1C1C"/>
</svg>
